<svg width="16" height="16" viewBox="0 0 16 16" fill="none" xmlns="http://www.w3.org/2000/svg">
<path d="M4.25 8H11.75M4.25 5H8.75" stroke="#23374D" stroke-width="1.5" stroke-linecap="round" stroke-linejoin="round"/>
<path d="M1.25 14.2175V2.75C1.25 2.35218 1.40804 1.97064 1.68934 1.68934C1.97064 1.40804 2.35218 1.25 2.75 1.25H13.25C13.6478 1.25 14.0294 1.40804 14.3107 1.68934C14.592 1.97064 14.75 2.35218 14.75 2.75V10.25C14.75 10.6478 14.592 11.0294 14.3107 11.3107C14.0294 11.592 13.6478 11.75 13.25 11.75H4.97075C4.74593 11.75 4.52398 11.8006 4.32133 11.898C4.11869 11.9953 3.94052 12.137 3.8 12.3125L2.05175 14.498C1.99357 14.5709 1.91417 14.6239 1.82453 14.6498C1.73489 14.6756 1.63944 14.6729 1.5514 14.6421C1.46335 14.6113 1.38705 14.5539 1.33305 14.4778C1.27906 14.4017 1.25003 14.3108 1.25 14.2175Z" stroke="#23374D" stroke-width="1.5"/>
</svg>
