<svg width="20" height="20" viewBox="0 0 20 20" fill="none" xmlns="http://www.w3.org/2000/svg">
<path d="M5.83334 15V14.1667C5.83334 13.0616 6.27232 12.0018 7.05372 11.2204C7.83513 10.439 8.89493 10 10 10M10 10C11.1051 10 12.1649 10.439 12.9463 11.2204C13.7277 12.0018 14.1667 13.0616 14.1667 14.1667V15M10 10C10.663 10 11.2989 9.73661 11.7678 9.26777C12.2366 8.79893 12.5 8.16304 12.5 7.5C12.5 6.83696 12.2366 6.20107 11.7678 5.73223C11.2989 5.26339 10.663 5 10 5C9.33696 5 8.70108 5.26339 8.23223 5.73223C7.76339 6.20107 7.5 6.83696 7.5 7.5C7.5 8.16304 7.76339 8.79893 8.23223 9.26777C8.70108 9.73661 9.33696 10 10 10ZM0.833336 15V14.1667C0.833336 13.5036 1.09673 12.8677 1.56557 12.3989C2.03441 11.9301 2.67029 11.6667 3.33334 11.6667M3.33334 11.6667C3.77536 11.6667 4.19929 11.4911 4.51185 11.1785C4.82441 10.866 5 10.442 5 10C5 9.55797 4.82441 9.13405 4.51185 8.82149C4.19929 8.50893 3.77536 8.33333 3.33334 8.33333C2.89131 8.33333 2.46738 8.50893 2.15482 8.82149C1.84226 9.13405 1.66667 9.55797 1.66667 10C1.66667 10.442 1.84226 10.866 2.15482 11.1785C2.46738 11.4911 2.89131 11.6667 3.33334 11.6667ZM19.1667 15V14.1667C19.1667 13.5036 18.9033 12.8677 18.4344 12.3989C17.9656 11.9301 17.3297 11.6667 16.6667 11.6667M16.6667 11.6667C17.1087 11.6667 17.5326 11.4911 17.8452 11.1785C18.1577 10.866 18.3333 10.442 18.3333 10C18.3333 9.55797 18.1577 9.13405 17.8452 8.82149C17.5326 8.50893 17.1087 8.33333 16.6667 8.33333C16.2246 8.33333 15.8007 8.50893 15.4882 8.82149C15.1756 9.13405 15 9.55797 15 10C15 10.442 15.1756 10.866 15.4882 11.1785C15.8007 11.4911 16.2246 11.6667 16.6667 11.6667Z" stroke="#F08910" stroke-width="1.25" stroke-linecap="round" stroke-linejoin="round"/>
</svg>
