<svg width="20" height="20" viewBox="0 0 20 20" fill="none" xmlns="http://www.w3.org/2000/svg">
<path d="M4.16666 16.6667V15.8333C4.16666 14.2862 4.78125 12.8025 5.87521 11.7085C6.96917 10.6146 8.4529 9.99999 10 9.99999M10 9.99999C11.5471 9.99999 13.0308 10.6146 14.1248 11.7085C15.2187 12.8025 15.8333 14.2862 15.8333 15.8333V16.6667M10 9.99999C10.8841 9.99999 11.7319 9.64881 12.357 9.02368C12.9821 8.39856 13.3333 7.55072 13.3333 6.66666C13.3333 5.78261 12.9821 4.93476 12.357 4.30964C11.7319 3.68452 10.8841 3.33333 10 3.33333C9.11594 3.33333 8.2681 3.68452 7.64297 4.30964C7.01785 4.93476 6.66666 5.78261 6.66666 6.66666C6.66666 7.55072 7.01785 8.39856 7.64297 9.02368C8.2681 9.64881 9.11594 9.99999 10 9.99999Z" stroke="#0073C7" stroke-width="1.25" stroke-linecap="round" stroke-linejoin="round"/>
</svg>
