<svg width="162" height="48" viewBox="0 0 162 48" fill="none" xmlns="http://www.w3.org/2000/svg">
<g clip-path="url(#clip0_263_611)">
<g clip-path="url(#clip1_263_611)">
<g clip-path="url(#clip2_263_611)">
<g clip-path="url(#clip3_263_611)">
<path d="M54.5456 0H52.5676C52.5662 0 52.565 0.00115899 52.565 0.00258867V47.8541C52.565 47.8555 52.5662 47.8567 52.5676 47.8567H54.5456C54.5471 47.8567 54.5482 47.8555 54.5482 47.8541V0.00258867C54.5482 0.00115899 54.5471 0 54.5456 0Z" fill="white"/>
<g clip-path="url(#clip4_263_611)">
<g clip-path="url(#clip5_263_611)">
<g clip-path="url(#clip6_263_611)">
<g clip-path="url(#clip7_263_611)">
<path d="M60.2426 4.44285H64.6464L64.8006 6.22131C65.8705 4.8519 67.3081 4.16748 69.1131 4.16748C71.0168 4.16748 72.3043 4.92877 72.9743 6.45078C73.995 4.92877 75.4721 4.16748 77.4067 4.16748C80.4642 4.16748 82.035 6.02453 82.1189 9.73805V19.5999H77.4067V10.0364C77.4067 9.26016 77.277 8.69393 77.0183 8.33824C76.7555 7.98255 76.2814 7.8047 75.596 7.8047C74.6667 7.8047 73.9739 8.22178 73.5169 9.05536L73.5283 9.25041V19.5999H68.8161V10.0593C68.8161 9.26762 68.6904 8.69393 68.4391 8.33824C68.1878 7.98255 67.7097 7.8047 67.0054 7.8047C66.1029 7.8047 65.4158 8.22178 64.9434 9.05536V19.5999H60.2426V4.44285ZM88.4534 4.44285L90.8352 12.9909L93.3484 4.44285H98.3806L92.2289 22.1356L91.9662 22.7781C91.094 24.7402 89.55 25.7212 87.3339 25.7212C86.721 25.7212 86.0755 25.6277 85.3975 25.4401V22.0667H86.0144C86.673 22.0667 87.1756 21.9709 87.5223 21.7799C87.8725 21.5889 88.1318 21.2446 88.2992 20.7472L88.6761 19.7375L83.4327 4.44285H88.4534Z" fill="white"/>
<path d="M67.508 43.6893C65.193 43.6893 63.3195 42.9951 61.8876 41.6068C60.4556 40.2224 59.7399 38.4188 59.7399 36.1968V35.801C59.7399 34.252 60.0255 32.8849 60.5967 31.6991C61.1679 30.5132 62.0018 29.5953 63.0985 28.9453C64.1952 28.2988 65.4975 27.9758 67.0054 27.9758C69.1262 27.9758 70.7998 28.6355 72.0261 29.955C73.2524 31.2745 73.8653 33.1161 73.8653 35.4797V37.3155H64.5207C64.6881 38.1646 65.0559 38.8318 65.6231 39.3177C66.1903 39.8036 66.9254 40.0463 67.8279 40.0463C69.317 40.0463 70.4782 39.5243 71.3121 38.4801L73.4598 41.0273C72.8732 41.838 72.0432 42.4845 70.9694 42.9664C69.8956 43.4483 68.7418 43.6893 67.508 43.6893ZM66.9768 31.613C65.602 31.613 64.7835 32.5292 64.5207 34.361H69.2616V33.9938C69.2804 33.2406 69.0902 32.6554 68.6904 32.2383C68.2906 31.8213 67.7194 31.613 66.9768 31.613ZM84.9406 32.7891V36.4493H76.5556V32.7891H84.9406ZM88.0193 36.4894L88.0078 35.692C88.0078 34.1774 88.2991 32.8292 88.8818 31.6474C89.4684 30.4696 90.3097 29.5632 91.4064 28.9281C92.5031 28.293 93.7922 27.9758 95.2733 27.9758C97.5312 27.9758 99.3116 28.6774 100.614 30.0813C101.912 31.4851 102.562 33.3972 102.562 35.8182V35.9846C102.562 38.3482 101.909 40.2224 100.602 41.6068C99.2962 42.9951 97.5295 43.6893 95.3019 43.6893C93.1542 43.6893 91.4292 43.0427 90.1269 41.7502C88.8246 40.4577 88.1221 38.7039 88.0193 36.4894ZM92.7201 35.1298L92.703 35.9846C92.703 37.3844 92.9217 38.4113 93.3598 39.0653C93.7979 39.7193 94.4451 40.0463 95.3019 40.0463C96.9737 40.0463 97.8282 38.7538 97.8665 36.1681V35.692C97.8665 32.9727 97.0023 31.613 95.2733 31.613C93.7008 31.613 92.8498 32.7851 92.7201 35.1298ZM110.387 43.4082H105.675V31.5327H103.487V28.2512H105.675V27.0464C105.675 25.3213 106.181 23.9829 107.194 23.0305C108.207 22.0782 109.629 21.6021 111.461 21.6021C112.131 21.6021 112.866 21.6996 113.665 21.8946L113.677 25.3655C113.391 25.2812 113.007 25.2393 112.523 25.2393C111.099 25.2393 110.387 25.8571 110.387 27.0923V28.2512H113.328V31.5327H110.387V43.4082ZM120.737 43.4082H116.019V31.5327H113.831V28.2512H116.019V27.0464C116.019 25.3213 116.527 23.9829 117.544 23.0305C118.556 22.0782 119.979 21.6021 121.811 21.6021C122.477 21.6021 123.21 21.6996 124.01 21.8946L124.027 25.3655C123.737 25.2812 123.351 25.2393 122.867 25.2393C121.447 25.2393 120.737 25.8571 120.737 27.0923V28.2512H123.678V31.5327H120.737V43.4082ZM130.287 28.2512V43.4082H125.575V28.2512H130.287ZM125.295 24.3443C125.295 23.6714 125.536 23.1206 126.02 22.6921C126.504 22.2635 127.132 22.0495 127.905 22.0495C128.674 22.0495 129.3 22.2635 129.784 22.6921C130.268 23.1206 130.51 23.6714 130.51 24.3443C130.51 25.0173 130.268 25.568 129.784 25.9965C129.3 26.4285 128.674 26.6448 127.905 26.6448C127.132 26.6448 126.504 26.4285 126.02 25.9965C125.536 25.568 125.295 25.0173 125.295 24.3443ZM139.563 40.0463C140.222 40.0463 140.732 39.8668 141.094 39.507C141.455 39.1473 141.632 38.6465 141.625 38.004H146.029C146.029 39.6637 145.436 41.0273 144.252 42.0944C143.068 43.1575 141.541 43.6893 139.671 43.6893C137.478 43.6893 135.749 42.9968 134.485 41.6125C133.221 40.2316 132.589 38.3195 132.589 35.8756V35.6748C132.589 34.1447 132.87 32.7948 133.434 31.6245C133.994 30.4501 134.805 29.5477 135.867 28.9167C136.926 28.2896 138.181 27.9758 139.631 27.9758C141.592 27.9758 143.15 28.5208 144.304 29.6108C145.454 30.7049 146.029 32.185 146.029 34.0512H141.625C141.625 33.267 141.435 32.6646 141.054 32.2441C140.673 31.8236 140.161 31.613 139.517 31.613C138.299 31.613 137.588 32.3932 137.387 33.9537C137.322 34.4471 137.29 35.128 137.29 35.996C137.29 37.5181 137.471 38.5736 137.832 39.1628C138.194 39.752 138.771 40.0463 139.563 40.0463ZM155.316 43.6893C153.001 43.6893 151.128 42.9951 149.696 41.6068C148.264 40.2224 147.548 38.4188 147.548 36.1968V35.801C147.548 34.252 147.835 32.8849 148.411 31.6991C148.982 30.5132 149.816 29.5953 150.912 28.9453C152.009 28.2988 153.31 27.9758 154.814 27.9758C156.934 27.9758 158.608 28.6355 159.834 29.955C161.064 31.2745 161.679 33.1161 161.679 35.4797V37.3155H152.335C152.502 38.1646 152.87 38.8318 153.437 39.3177C154.004 39.8036 154.738 40.0463 155.636 40.0463C157.125 40.0463 158.288 39.5243 159.126 38.4801L161.274 41.0273C160.687 41.838 159.857 42.4845 158.783 42.9664C157.709 43.4483 156.554 43.6893 155.316 43.6893ZM154.791 31.613C153.412 31.613 152.593 32.5292 152.335 34.361H157.075V33.9938C157.094 33.2406 156.904 32.6554 156.504 32.2383C156.104 31.8213 155.533 31.613 154.791 31.613Z" fill="#1089FF"/>
</g>
</g>
</g>
</g>
<g clip-path="url(#clip8_263_611)">
<g clip-path="url(#clip9_263_611)">
<path d="M6.03059 6.13217C6.03059 7.77179 4.70998 9.0982 3.07753 9.0982C1.44509 9.0982 0.124481 7.77179 0.124481 6.13217C0.124481 4.49255 1.44509 3.16614 3.07753 3.16614C4.70998 3.16614 6.03059 4.49255 6.03059 6.13217Z" fill="#1089FF"/>
<path d="M17.8428 41.7245C17.8428 43.3641 16.5222 44.6905 14.8898 44.6905C13.2573 44.6905 11.9367 43.3641 11.9367 41.7245C11.9367 40.0849 13.2573 38.7585 14.8898 38.7585C16.5222 38.7585 17.8428 40.0849 17.8428 41.7245Z" fill="#1089FF"/>
<path d="M17.8428 17.9963C17.8428 19.6359 16.5222 20.9623 14.8898 20.9623C13.2573 20.9623 11.9367 19.6359 11.9367 17.9963C11.9367 16.3567 13.2573 15.0303 14.8898 15.0303C16.5222 15.0303 17.8428 16.3567 17.8428 17.9963Z" fill="#1089FF"/>
<path d="M29.655 29.8604C29.655 31.5001 28.3344 32.8265 26.702 32.8265C25.0695 32.8265 23.7489 31.5001 23.7489 29.8604C23.7489 28.2208 25.0695 26.8944 26.702 26.8944C28.3344 26.8944 29.655 28.2208 29.655 29.8604Z" fill="#1089FF"/>
<path d="M47.3733 3.16614H11.9367V9.0982H47.3733V3.16614Z" fill="#1089FF"/>
<path d="M47.3733 15.0303H23.7489V20.9623H47.3733V15.0303Z" fill="#1089FF"/>
<path d="M47.3733 38.7585H23.7489V44.6905H47.3733V38.7585Z" fill="#1089FF"/>
<path d="M47.3733 26.8944H35.5611V32.8265H47.3733V26.8944Z" fill="#1089FF"/>
</g>
</g>
</g>
</g>
</g>
</g>
<defs>
<clipPath id="clip0_263_611">
<rect width="162" height="48" fill="white"/>
</clipPath>
<clipPath id="clip1_263_611">
<rect width="162" height="48" fill="white" transform="translate(-0.098175 -0.0716553)"/>
</clipPath>
<clipPath id="clip2_263_611">
<rect width="161.555" height="47.8567" fill="white" transform="translate(0.124481)"/>
</clipPath>
<clipPath id="clip3_263_611">
<rect width="161.555" height="47.8567" fill="white" transform="translate(0.124481)"/>
</clipPath>
<clipPath id="clip4_263_611">
<rect width="101.939" height="47.6186" fill="white" transform="translate(59.7399 0.119019)"/>
</clipPath>
<clipPath id="clip5_263_611">
<rect width="101.939" height="47.6186" fill="white" transform="translate(59.7399 0.119019)"/>
</clipPath>
<clipPath id="clip6_263_611">
<rect width="101.939" height="47.6186" fill="white" transform="translate(59.7399 0.119019)"/>
</clipPath>
<clipPath id="clip7_263_611">
<rect width="101.939" height="47.6186" fill="white" transform="translate(59.7399 0.119019)"/>
</clipPath>
<clipPath id="clip8_263_611">
<rect width="47.2489" height="41.5244" fill="white" transform="translate(0.124481 3.16614)"/>
</clipPath>
<clipPath id="clip9_263_611">
<rect width="47.2489" height="41.5244" fill="white" transform="translate(0.124481 3.16614)"/>
</clipPath>
</defs>
</svg>
