<svg width="20" height="20" viewBox="0 0 20 20" fill="none" xmlns="http://www.w3.org/2000/svg">
<path d="M5.08002 5H15.08M5.08002 10H15.08M5.08002 15H11.08M17.08 1H3.08002C2.54958 1 2.04088 1.21071 1.6658 1.58579C1.29073 1.96086 1.08002 2.46957 1.08002 3V17C1.08002 17.5304 1.29073 18.0391 1.6658 18.4142C2.04088 18.7893 2.54958 19 3.08002 19H17.08C17.6105 19 18.1192 18.7893 18.4942 18.4142C18.8693 18.0391 19.08 17.5304 19.08 17V3C19.08 2.46957 18.8693 1.96086 18.4942 1.58579C18.1192 1.21071 17.6105 1 17.08 1Z" stroke="#161616" stroke-width="1.5" stroke-linecap="round" stroke-linejoin="round"/>
</svg>
