<svg width="18" height="18" viewBox="0 0 18 18" fill="none" xmlns="http://www.w3.org/2000/svg">
<path d="M9.00002 0.666626C4.40502 0.666626 0.666687 4.40496 0.666687 8.99996V12.4525C0.666687 13.3058 1.41419 14 2.33335 14H3.16669C3.3877 14 3.59966 13.9122 3.75594 13.7559C3.91222 13.5996 4.00002 13.3876 4.00002 13.1666V8.88079C4.00002 8.65978 3.91222 8.44782 3.75594 8.29154C3.59966 8.13526 3.3877 8.04746 3.16669 8.04746H2.41002C2.87335 4.82246 5.64835 2.33329 9.00002 2.33329C12.3517 2.33329 15.1267 4.82246 15.59 8.04746H14.8334C14.6123 8.04746 14.4004 8.13526 14.2441 8.29154C14.0878 8.44782 14 8.65978 14 8.88079V14C14 14.9191 13.2525 15.6666 12.3334 15.6666H10.6667V14.8333H7.33335V17.3333H12.3334C14.1717 17.3333 15.6667 15.8383 15.6667 14C16.5859 14 17.3334 13.3058 17.3334 12.4525V8.99996C17.3334 4.40496 13.595 0.666626 9.00002 0.666626Z" fill="#1089FF"/>
</svg>
