<svg width="80" height="24" viewBox="0 0 80 24" fill="none" xmlns="http://www.w3.org/2000/svg">
<g clip-path="url(#clip0_263_701)">
<g clip-path="url(#clip1_263_701)">
<g clip-path="url(#clip2_263_701)">
<path d="M26.9844 0.0352783H26.0076C26.0069 0.0352783 26.0063 0.0358482 26.0063 0.0365511V23.5635C26.0063 23.5643 26.0069 23.5648 26.0076 23.5648H26.9844C26.9851 23.5648 26.9857 23.5643 26.9857 23.5635V0.0365511C26.9857 0.0358482 26.9851 0.0352783 26.9844 0.0352783Z" fill="#0073C7"/>
<g clip-path="url(#clip3_263_701)">
<g clip-path="url(#clip4_263_701)">
<g clip-path="url(#clip5_263_701)">
<g clip-path="url(#clip6_263_701)">
<path d="M29.7979 2.21962H31.9726L32.0487 3.09403C32.5771 2.42073 33.287 2.08423 34.1783 2.08423C35.1185 2.08423 35.7542 2.45853 36.0851 3.20685C36.5892 2.45853 37.3186 2.08423 38.2739 2.08423C39.7838 2.08423 40.5595 2.99728 40.601 4.82309V9.67181H38.2739V4.96977C38.2739 4.58813 38.2099 4.30973 38.0821 4.13485C37.9524 3.95997 37.7183 3.87253 37.3798 3.87253C36.9209 3.87253 36.5787 4.07759 36.3531 4.48743L36.3587 4.58334V9.67181H34.0317V4.98105C34.0317 4.5918 33.9696 4.30973 33.8455 4.13485C33.7214 3.95997 33.4853 3.87253 33.1375 3.87253C32.6919 3.87253 32.3525 4.07759 32.1193 4.48743V9.67181H29.7979V2.21962ZM43.7291 2.21962L44.9053 6.42241L46.1464 2.21962H48.6314L45.5936 10.9185L45.4638 11.2345C45.0331 12.1991 44.2707 12.6815 43.1763 12.6815C42.8736 12.6815 42.5549 12.6355 42.2201 12.5433V10.8847H42.5247C42.8499 10.8847 43.0981 10.8376 43.2693 10.7437C43.4422 10.6497 43.5703 10.4805 43.6529 10.2359L43.8391 9.73951L41.2497 2.21962H43.7291Z" fill="#0073C7"/>
<path d="M33.3857 21.5158C32.2424 21.5158 31.3173 21.1745 30.6101 20.4919C29.903 19.8113 29.5496 18.9245 29.5496 17.832V17.6374C29.5496 16.8758 29.6906 16.2036 29.9727 15.6206C30.2547 15.0376 30.6665 14.5863 31.2081 14.2667C31.7497 13.9488 32.3928 13.79 33.1374 13.79C34.1848 13.79 35.0112 14.1144 35.6168 14.7631C36.2224 15.4119 36.5251 16.3173 36.5251 17.4794V18.382H31.9105C31.9931 18.7995 32.1748 19.1275 32.4548 19.3665C32.7349 19.6054 33.098 19.7247 33.5436 19.7247C34.279 19.7247 34.8524 19.468 35.2642 18.9546L36.3248 20.207C36.0351 20.6056 35.6253 20.9235 35.095 21.1604C34.5647 21.3973 33.9949 21.5158 33.3857 21.5158ZM33.1233 15.5783C32.4444 15.5783 32.0402 16.0288 31.9105 16.9294H34.2516V16.7489C34.2609 16.3785 34.167 16.0908 33.9695 15.8858C33.7721 15.6807 33.49 15.5783 33.1233 15.5783ZM41.9943 16.1565V17.9561H37.8536V16.1565H41.9943ZM43.5147 17.9759L43.509 17.5838C43.509 16.8391 43.6529 16.1763 43.9406 15.5952C44.2303 15.0161 44.6457 14.5705 45.1873 14.2582C45.7289 13.946 46.3655 13.79 47.0969 13.79C48.2119 13.79 49.0911 14.135 49.7342 14.8252C50.3754 15.5154 50.6961 16.4555 50.6961 17.6459V17.7277C50.6961 18.8898 50.3737 19.8113 49.7286 20.4919C49.0835 21.1745 48.2111 21.5158 47.111 21.5158C46.0504 21.5158 45.1986 21.1979 44.5555 20.5624C43.9124 19.9269 43.5654 19.0646 43.5147 17.9759ZM45.8361 17.3074L45.8276 17.7277C45.8276 18.4159 45.9356 18.9208 46.152 19.2423C46.3683 19.5639 46.6879 19.7247 47.111 19.7247C47.9366 19.7247 48.3586 19.0892 48.3775 17.8179V17.5838C48.3775 16.2468 47.9507 15.5783 47.0969 15.5783C46.3204 15.5783 45.9001 16.1546 45.8361 17.3074ZM54.5604 21.3776H52.2333V15.5388H51.153V13.9254H52.2333V13.3331C52.2333 12.4849 52.4835 11.8268 52.9836 11.3586C53.4837 10.8904 54.1861 10.6562 55.0907 10.6562C55.4215 10.6562 55.7845 10.7042 56.1794 10.8001L56.1851 12.5066C56.0441 12.4651 55.8542 12.4446 55.6153 12.4446C54.9121 12.4446 54.5604 12.7483 54.5604 13.3556V13.9254H56.013V15.5388H54.5604V21.3776ZM59.6714 21.3776H57.3416V15.5388H56.2612V13.9254H57.3416V13.3331C57.3416 12.4849 57.5926 11.8268 58.0947 11.3586C58.5948 10.8904 59.2971 10.6562 60.2017 10.6562C60.5309 10.6562 60.8928 10.7042 61.2877 10.8001L61.2961 12.5066C61.1531 12.4651 60.9624 12.4446 60.7235 12.4446C60.022 12.4446 59.6714 12.7483 59.6714 13.3556V13.9254H61.1241V15.5388H59.6714V21.3776ZM64.3876 13.9254V21.3776H62.0605V13.9254H64.3876ZM61.9223 12.0045C61.9223 11.6737 62.0416 11.4029 62.2805 11.1922C62.5194 10.9815 62.8297 10.8763 63.2114 10.8763C63.5913 10.8763 63.9004 10.9815 64.1394 11.1922C64.3783 11.4029 64.4976 11.6737 64.4976 12.0045C64.4976 12.3354 64.3783 12.6062 64.1394 12.8169C63.9004 13.0293 63.5913 13.1356 63.2114 13.1356C62.8297 13.1356 62.5194 13.0293 62.2805 12.8169C62.0416 12.6062 61.9223 12.3354 61.9223 12.0045ZM68.9683 19.7247C69.2936 19.7247 69.5457 19.6364 69.7243 19.4595C69.9028 19.2827 69.9903 19.0364 69.9866 18.7205H72.1613C72.1613 19.5365 71.8688 20.207 71.2841 20.7317C70.6994 21.2543 69.9451 21.5158 69.0219 21.5158C67.9388 21.5158 67.085 21.1754 66.4608 20.4947C65.8365 19.8158 65.5243 18.8757 65.5243 17.6741V17.5753C65.5243 16.8231 65.6634 16.1594 65.9418 15.5839C66.2182 15.0066 66.6187 14.5629 67.1434 14.2526C67.666 13.9443 68.2857 13.79 69.0022 13.79C69.9705 13.79 70.7397 14.058 71.3095 14.5939C71.8773 15.1318 72.1613 15.8595 72.1613 16.7771H69.9866C69.9866 16.3915 69.8927 16.0953 69.7045 15.8886C69.5164 15.6818 69.2637 15.5783 68.9458 15.5783C68.3441 15.5783 67.9932 15.9619 67.8937 16.7291C67.8618 16.9717 67.8457 17.3065 67.8457 17.7333C67.8457 18.4816 67.9351 19.0006 68.1137 19.2903C68.2922 19.58 68.5771 19.7247 68.9683 19.7247ZM76.7477 21.5158C75.6045 21.5158 74.6793 21.1745 73.9722 20.4919C73.265 19.8113 72.9116 18.9245 72.9116 17.832V17.6374C72.9116 16.8758 73.0535 16.2036 73.3375 15.6206C73.6196 15.0376 74.0314 14.5863 74.573 14.2667C75.1146 13.9488 75.7568 13.79 76.4995 13.79C77.5468 13.79 78.3733 14.1144 78.9789 14.7631C79.5861 15.4119 79.8899 16.3173 79.8899 17.4794V18.382H75.2753C75.358 18.7995 75.5396 19.1275 75.8197 19.3665C76.0998 19.6054 76.462 19.7247 76.9057 19.7247C77.641 19.7247 78.2153 19.468 78.6291 18.9546L79.6897 20.207C79.4 20.6056 78.9901 20.9235 78.4599 21.1604C77.9296 21.3973 77.359 21.5158 76.7477 21.5158ZM76.4882 15.5783C75.8076 15.5783 75.4031 16.0288 75.2753 16.9294H77.6165V16.7489C77.6258 16.3785 77.5319 16.0908 77.3344 15.8858C77.137 15.6807 76.8549 15.5783 76.4882 15.5783Z" fill="#0073C7"/>
</g>
</g>
</g>
</g>
<g clip-path="url(#clip7_263_701)">
<g clip-path="url(#clip8_263_701)">
<path d="M3.02646 3.05022C3.02646 3.85636 2.37431 4.50851 1.56816 4.50851C0.762014 4.50851 0.109863 3.85636 0.109863 3.05022C0.109863 2.24407 0.762014 1.59192 1.56816 1.59192C2.37431 1.59192 3.02646 2.24407 3.02646 3.05022Z" fill="#0073C7"/>
<path d="M8.85971 20.5499C8.85971 21.356 8.20756 22.0081 7.40141 22.0081C6.59527 22.0081 5.94312 21.356 5.94312 20.5499C5.94312 19.7437 6.59527 19.0916 7.40141 19.0916C8.20756 19.0916 8.85971 19.7437 8.85971 20.5499Z" fill="#0073C7"/>
<path d="M8.85971 8.88335C8.85971 9.68949 8.20756 10.3416 7.40141 10.3416C6.59527 10.3416 5.94312 9.68949 5.94312 8.88335C5.94312 8.0772 6.59527 7.42505 7.40141 7.42505C8.20756 7.42505 8.85971 8.0772 8.85971 8.88335Z" fill="#0073C7"/>
<path d="M14.693 14.7166C14.693 15.5227 14.0408 16.1749 13.2347 16.1749C12.4285 16.1749 11.7764 15.5227 11.7764 14.7166C11.7764 13.9105 12.4285 13.2583 13.2347 13.2583C14.0408 13.2583 14.693 13.9105 14.693 14.7166Z" fill="#0073C7"/>
<path d="M23.4427 1.59192H5.94312V4.50851H23.4427V1.59192Z" fill="#0073C7"/>
<path d="M23.4427 7.42505H11.7764V10.3416H23.4427V7.42505Z" fill="#0073C7"/>
<path d="M23.4427 19.0916H11.7764V22.0081H23.4427V19.0916Z" fill="#0073C7"/>
<path d="M23.4426 13.2583H17.6094V16.1749H23.4426V13.2583Z" fill="#0073C7"/>
</g>
</g>
</g>
</g>
</g>
<defs>
<clipPath id="clip0_263_701">
<rect width="80" height="23.6" fill="white"/>
</clipPath>
<clipPath id="clip1_263_701">
<rect width="79.7801" height="23.5295" fill="white" transform="translate(0.109863 0.0352783)"/>
</clipPath>
<clipPath id="clip2_263_701">
<rect width="79.7801" height="23.5295" fill="white" transform="translate(0.109863 0.0352783)"/>
</clipPath>
<clipPath id="clip3_263_701">
<rect width="50.3404" height="23.4125" fill="white" transform="translate(29.5496 0.09375)"/>
</clipPath>
<clipPath id="clip4_263_701">
<rect width="50.3404" height="23.4125" fill="white" transform="translate(29.5496 0.09375)"/>
</clipPath>
<clipPath id="clip5_263_701">
<rect width="50.3404" height="23.4125" fill="white" transform="translate(29.5496 0.09375)"/>
</clipPath>
<clipPath id="clip6_263_701">
<rect width="50.3404" height="23.4125" fill="white" transform="translate(29.5496 0.09375)"/>
</clipPath>
<clipPath id="clip7_263_701">
<rect width="23.3328" height="20.4162" fill="white" transform="translate(0.109863 1.59192)"/>
</clipPath>
<clipPath id="clip8_263_701">
<rect width="23.3328" height="20.4162" fill="white" transform="translate(0.109863 1.59192)"/>
</clipPath>
</defs>
</svg>
