<svg width="20" height="21" viewBox="0 0 20 21" fill="none" xmlns="http://www.w3.org/2000/svg">
<path d="M13.08 3V1M13.08 3V5M13.08 3H8.58002M1.08002 9V5C1.08002 4.46957 1.29073 3.96086 1.6658 3.58579C2.04088 3.21071 2.54958 3 3.08002 3H5.08002M5.08002 1V5M19.08 9V5C19.08 4.46957 18.8693 3.96086 18.4942 3.58579C18.1192 3.21071 17.6105 3 17.08 3H16.58M1.08002 9V18C1.08002 18.5304 1.29073 19.0391 1.6658 19.4142C2.04088 19.7893 2.54958 20 3.08002 20H17.08C17.6105 20 18.1192 19.7893 18.4942 19.4142C18.8693 19.0391 19.08 18.5304 19.08 18V9H1.08002Z" stroke="#161616" stroke-width="1.5" stroke-linecap="round" stroke-linejoin="round"/>
</svg>
