<svg width="20" height="20" viewBox="0 0 20 20" fill="none" xmlns="http://www.w3.org/2000/svg">
<path d="M7 18.2857H5C3.93913 18.2857 2.92172 17.8643 2.17157 17.1141C1.42143 16.364 1 15.3466 1 14.2857V7.99371C0.999986 7.30592 1.17732 6.62975 1.51487 6.0305C1.85242 5.43124 2.33879 4.92915 2.927 4.57271L7.927 1.54271C8.55211 1.1639 9.26907 0.963623 10 0.963623C10.7309 0.963623 11.4479 1.1639 12.073 1.54271L17.073 4.57271C17.6611 4.92906 18.1473 5.431 18.4849 6.03006C18.8224 6.62913 18.9998 7.30509 19 7.99271V14.2857C19 15.3466 18.5786 16.364 17.8284 17.1141C17.0783 17.8643 16.0609 18.2857 15 18.2857H13M7 18.2857V14.2857C7 13.4901 7.31607 12.727 7.87868 12.1644C8.44129 11.6018 9.20435 11.2857 10 11.2857V11.2857C10.7956 11.2857 11.5587 11.6018 12.1213 12.1644C12.6839 12.727 13 13.4901 13 14.2857V18.2857M7 18.2857H13" stroke="#161616" stroke-width="1.5" stroke-linecap="round" stroke-linejoin="round"/>
</svg>
