<svg width="20" height="20" viewBox="0 0 20 20" fill="none" xmlns="http://www.w3.org/2000/svg">
<path d="M8.33333 7.50833L8.34167 7.49917M11.6667 7.50833L11.675 7.49917M8.33333 10.8417L8.34167 10.8325M11.6667 10.8417L11.675 10.8325M8.33333 14.175L8.34167 14.1658M11.6667 14.175L11.675 14.1658M5 17V4.66667C5 4.53406 5.05268 4.40688 5.14645 4.31311C5.24021 4.21935 5.36739 4.16667 5.5 4.16667H10V3C10 2.86739 10.0527 2.74021 10.1464 2.64645C10.2402 2.55268 10.3674 2.5 10.5 2.5H14.5C14.6326 2.5 14.7598 2.55268 14.8536 2.64645C14.9473 2.74021 15 2.86739 15 3V17C15 17.1326 14.9473 17.2598 14.8536 17.3536C14.7598 17.4473 14.6326 17.5 14.5 17.5H5.5C5.36739 17.5 5.24021 17.4473 5.14645 17.3536C5.05268 17.2598 5 17.1326 5 17Z" stroke="#499300" stroke-width="1.25" stroke-linecap="round" stroke-linejoin="round"/>
</svg>
