<svg width="25" height="24" viewBox="0 0 25 24" fill="none" xmlns="http://www.w3.org/2000/svg">
<path d="M7.08002 2H16.58L21.08 6.5V19" stroke="#161616" stroke-width="1.5" stroke-linecap="round" stroke-linejoin="round"/>
<path d="M3.08002 20.5V6.5C3.08002 6.10218 3.23805 5.72064 3.51936 5.43934C3.80066 5.15804 4.18219 5 4.58002 5H14.332C14.4911 5.00014 14.6436 5.06345 14.756 5.176L17.904 8.324C17.96 8.3799 18.0044 8.44632 18.0346 8.51943C18.0648 8.59254 18.0802 8.6709 18.08 8.75V20.5C18.08 20.8978 17.922 21.2794 17.6407 21.5607C17.3594 21.842 16.9778 22 16.58 22H4.58002C4.18219 22 3.80066 21.842 3.51936 21.5607C3.23805 21.2794 3.08002 20.8978 3.08002 20.5Z" stroke="#161616" stroke-width="1.5" stroke-linecap="round" stroke-linejoin="round"/>
<path d="M14.08 5V8.4C14.08 8.55913 14.1432 8.71174 14.2558 8.82426C14.3683 8.93679 14.5209 9 14.68 9H18.08" stroke="#161616" stroke-width="1.5" stroke-linecap="round" stroke-linejoin="round"/>
</svg>
