<svg width="21" height="21" viewBox="0 0 21 21" fill="none" xmlns="http://www.w3.org/2000/svg">
<path d="M19 11V14C19 15.5913 18.3679 17.1174 17.2426 18.2426C16.1174 19.3679 14.5913 20 13 20H7C5.4087 20 3.88258 19.3679 2.75736 18.2426C1.63214 17.1174 1 15.5913 1 14V8C1 6.4087 1.63214 4.88258 2.75736 3.75736C3.88258 2.63214 5.4087 2 7 2H10M17 7C17.7956 7 18.5587 6.68393 19.1213 6.12132C19.6839 5.55871 20 4.79565 20 4C20 3.20435 19.6839 2.44129 19.1213 1.87868C18.5587 1.31607 17.7956 1 17 1C16.2044 1 15.4413 1.31607 14.8787 1.87868C14.3161 2.44129 14 3.20435 14 4C14 4.79565 14.3161 5.55871 14.8787 6.12132C15.4413 6.68393 16.2044 7 17 7Z" stroke="#161616" stroke-width="1.5" stroke-linecap="round" stroke-linejoin="round"/>
</svg>
