<svg width="22" height="22" viewBox="0 0 22 22" fill="none" xmlns="http://www.w3.org/2000/svg">
<path d="M6 15V10.361C6 9.85102 6.1 9.36202 6.285 8.90802M16 12.5V11.815M8.222 6.73502C9.06662 6.24844 10.0253 5.9948 11 6.00002C13.28 6.00002 15.203 7.33002 15.805 9.15002M9 16V13.823M13 16V10.853C13 9.83002 12.105 9.00002 11 9.00002C9.895 9.00002 9 9.83002 9 10.853V11.647" stroke="#737373" stroke-width="1.5" stroke-linecap="round" stroke-linejoin="round"/>
<path d="M13 20.8C12.354 20.931 11.685 21 11 21C5.477 21 1 16.523 1 11C1 5.477 5.477 1 11 1C16.523 1 21 5.477 21 11C21 11.254 20.99 11.506 20.972 11.755" stroke="#737373" stroke-width="1.5" stroke-linecap="round" stroke-linejoin="round"/>
<path d="M20.167 17.5H20.4C20.5591 17.5 20.7117 17.5632 20.8243 17.6757C20.9368 17.7883 21 17.9409 21 18.1V20.4C21 20.5591 20.9368 20.7117 20.8243 20.8243C20.7117 20.9368 20.5591 21 20.4 21H16.6C16.4409 21 16.2883 20.9368 16.1757 20.8243C16.0632 20.7117 16 20.5591 16 20.4V18.1C16 17.9409 16.0632 17.7883 16.1757 17.6757C16.2883 17.5632 16.4409 17.5 16.6 17.5H16.833M20.167 17.5V15.75C20.167 15.167 19.833 14 18.5 14C17.167 14 16.833 15.167 16.833 15.75V17.5M20.167 17.5H16.833" stroke="#737373" stroke-width="1.5" stroke-linecap="round" stroke-linejoin="round"/>
</svg>
