<svg width="127" height="120" viewBox="0 0 127 120" fill="none" xmlns="http://www.w3.org/2000/svg">
<g clip-path="url(#clip0_314_451)">
<path d="M78.9073 69.7323H32.3886C30.8111 69.7304 29.2987 69.0728 28.1832 67.9037C27.0678 66.7346 26.4403 65.1494 26.4385 63.4961V6.23622C26.4403 4.58285 27.0678 2.99772 28.1832 1.82861C29.2987 0.659496 30.8111 0.00186765 32.3886 0H75.6666L84.8573 7.6779V63.4961C84.8556 65.1494 84.2281 66.7346 83.1126 67.9037C81.9972 69.0728 80.4848 69.7304 78.9073 69.7323Z" fill="#E6E6E6"/>
<path d="M32.3886 1.79529C31.2652 1.79662 30.1882 2.26493 29.3939 3.09748C28.5995 3.93003 28.1527 5.05883 28.1514 6.23623V63.4961C28.1527 64.6735 28.5995 65.8023 29.3939 66.6348C30.1882 67.4674 31.2652 67.9357 32.3886 67.937H78.9073C80.0307 67.9357 81.1077 67.4674 81.902 66.6348C82.6964 65.8023 83.1432 64.6735 83.1444 63.4961V8.5428L75.0675 1.79529H32.3886Z" fill="white"/>
<path d="M69.8594 18.4449H48.6801C48.55 18.4449 48.4212 18.4181 48.3009 18.3659C48.1807 18.3137 48.0715 18.2372 47.9795 18.1407C47.8875 18.0443 47.8145 17.9298 47.7647 17.8038C47.7149 17.6778 47.6893 17.5428 47.6893 17.4064C47.6893 17.27 47.7149 17.135 47.7647 17.009C47.8145 16.883 47.8875 16.7685 47.9795 16.6721C48.0715 16.5757 48.1807 16.4992 48.3009 16.447C48.4212 16.3948 48.55 16.3679 48.6801 16.3679H69.8594C69.9895 16.3679 70.1184 16.3948 70.2386 16.447C70.3588 16.4992 70.4681 16.5757 70.5601 16.6721C70.6521 16.7685 70.725 16.883 70.7748 17.009C70.8246 17.135 70.8503 17.27 70.8503 17.4064C70.8503 17.5428 70.8246 17.6778 70.7748 17.8038C70.725 17.9298 70.6521 18.0443 70.5601 18.1407C70.4681 18.2372 70.3588 18.3137 70.2386 18.3659C70.1184 18.4181 69.9895 18.4449 69.8594 18.4449Z" fill="#CCCCCC"/>
<path d="M73.9467 21.9498H48.6801C48.4173 21.9498 48.1653 21.8404 47.9795 21.6457C47.7937 21.4509 47.6893 21.1868 47.6893 20.9113C47.6893 20.6359 47.7937 20.3718 47.9795 20.177C48.1653 19.9822 48.4173 19.8728 48.6801 19.8728H73.9467C74.2094 19.8728 74.4615 19.9822 74.6473 20.177C74.8331 20.3718 74.9375 20.6359 74.9375 20.9113C74.9375 21.1868 74.8331 21.4509 74.6473 21.6457C74.4615 21.8404 74.2094 21.9498 73.9467 21.9498Z" fill="#CCCCCC"/>
<path d="M69.8594 34.1522H48.6801C48.4173 34.1522 48.1653 34.0428 47.9795 33.848C47.7937 33.6532 47.6893 33.3891 47.6893 33.1137C47.6893 32.8382 47.7937 32.5741 47.9795 32.3793C48.1653 32.1846 48.4173 32.0752 48.6801 32.0752H69.8594C70.1222 32.0752 70.3742 32.1846 70.5601 32.3793C70.7459 32.5741 70.8503 32.8382 70.8503 33.1137C70.8503 33.3891 70.7459 33.6532 70.5601 33.848C70.3742 34.0428 70.1222 34.1522 69.8594 34.1522Z" fill="#CCCCCC"/>
<path d="M73.9467 37.6571H48.6801C48.4173 37.6571 48.1653 37.5477 47.9795 37.3529C47.7937 37.1582 47.6893 36.894 47.6893 36.6186C47.6893 36.3432 47.7937 36.079 47.9795 35.8843C48.1653 35.6895 48.4173 35.5801 48.6801 35.5801H73.9467C74.2094 35.5801 74.4615 35.6895 74.6473 35.8843C74.8331 36.079 74.9375 36.3432 74.9375 36.6186C74.9375 36.894 74.8331 37.1582 74.6473 37.3529C74.4615 37.5477 74.2094 37.6571 73.9467 37.6571Z" fill="#CCCCCC"/>
<path d="M69.8594 49.8594H48.6801C48.4173 49.8594 48.1653 49.75 47.9795 49.5553C47.7937 49.3605 47.6893 49.0964 47.6893 48.821C47.6893 48.5455 47.7937 48.2814 47.9795 48.0866C48.1653 47.8919 48.4173 47.7825 48.6801 47.7825H69.8594C70.1222 47.7825 70.3742 47.8919 70.5601 48.0866C70.7459 48.2814 70.8503 48.5455 70.8503 48.821C70.8503 49.0964 70.7459 49.3605 70.5601 49.5553C70.3742 49.75 70.1222 49.8594 69.8594 49.8594Z" fill="#CCCCCC"/>
<path d="M73.9467 53.3644H48.6801C48.4173 53.3644 48.1653 53.255 47.9795 53.0602C47.7937 52.8655 47.6893 52.6013 47.6893 52.3259C47.6893 52.0505 47.7937 51.7863 47.9795 51.5916C48.1653 51.3968 48.4173 51.2874 48.6801 51.2874H73.9467C74.2094 51.2874 74.4615 51.3968 74.6473 51.5916C74.8331 51.7863 74.9375 52.0505 74.9375 52.3259C74.9375 52.6013 74.8331 52.8655 74.6473 53.0602C74.4615 53.255 74.2094 53.3644 73.9467 53.3644Z" fill="#CCCCCC"/>
<path d="M39.8605 22.8294C41.7946 22.8294 43.3626 21.186 43.3626 19.1589C43.3626 17.1317 41.7946 15.4883 39.8605 15.4883C37.9263 15.4883 36.3584 17.1317 36.3584 19.1589C36.3584 21.186 37.9263 22.8294 39.8605 22.8294Z" fill="#0073C7"/>
<path d="M39.5134 20.5591C39.4347 20.5592 39.358 20.5325 39.2949 20.4829L39.291 20.4799L38.468 19.82C38.3911 19.7581 38.3408 19.6667 38.3281 19.566C38.3155 19.4653 38.3415 19.3634 38.4005 19.2827C38.4595 19.2021 38.5466 19.1493 38.6427 19.136C38.7388 19.1226 38.8361 19.1498 38.913 19.2115L39.4461 19.64L40.7059 17.9175C40.7351 17.8776 40.7715 17.8441 40.8131 17.8189C40.8547 17.7937 40.9006 17.7773 40.9481 17.7708C40.9957 17.7642 41.0441 17.7675 41.0905 17.7805C41.1369 17.7935 41.1804 17.8159 41.2185 17.8465L41.2186 17.8466L41.2108 17.858L41.2188 17.8466C41.2957 17.9085 41.3459 17.9999 41.3586 18.1006C41.3713 18.2014 41.3453 18.3033 41.2864 18.384L39.8047 20.4091C39.7704 20.4558 39.7263 20.4935 39.6759 20.5195C39.6254 20.5454 39.57 20.5588 39.5138 20.5586L39.5134 20.5591Z" fill="white"/>
<path d="M40.2211 38.5367C42.1552 38.5367 43.7232 36.8933 43.7232 34.8661C43.7232 32.839 42.1552 31.1956 40.2211 31.1956C38.2869 31.1956 36.719 32.839 36.719 34.8661C36.719 36.8933 38.2869 38.5367 40.2211 38.5367Z" fill="#CCCCCC"/>
<path d="M39.8605 54.2439C41.7946 54.2439 43.3626 52.6006 43.3626 50.5734C43.3626 48.5462 41.7946 46.9029 39.8605 46.9029C37.9263 46.9029 36.3584 48.5462 36.3584 50.5734C36.3584 52.6006 37.9263 54.2439 39.8605 54.2439Z" fill="#CCCCCC"/>
<path d="M84.6785 7.92499H77.4791C76.9535 7.92499 76.4494 7.70616 76.0778 7.31665C75.7062 6.92714 75.4974 6.39885 75.4974 5.848V0.274895C75.4974 0.250496 75.5039 0.226588 75.5163 0.205918C75.5287 0.185247 75.5464 0.16865 75.5673 0.158028C75.5883 0.147406 75.6117 0.143189 75.6348 0.145862C75.6579 0.148535 75.6799 0.157989 75.6981 0.17314L84.7554 7.69342C84.7755 7.71016 84.7902 7.73305 84.7974 7.75893C84.8046 7.78482 84.8039 7.8124 84.7954 7.83785C84.787 7.86331 84.7712 7.88537 84.7502 7.90099C84.7292 7.9166 84.7042 7.92499 84.6785 7.92499Z" fill="#E6E6E6"/>
<path d="M35.9434 80.4609L8.4206 86.5412C7.62523 86.716 6.7962 86.5529 6.11541 86.0878C5.43461 85.6227 4.95763 84.8935 4.78913 84.0603L0.0662565 60.5763C-0.10046 59.7427 0.0551298 58.8738 0.498891 58.1602C0.942652 57.4467 1.63834 56.9468 2.43334 56.7702L29.9561 50.6898C30.7515 50.5151 31.5805 50.6782 32.2613 51.1433C32.9421 51.6084 33.4191 52.3375 33.5876 53.1708L38.3105 76.6548C38.4772 77.4884 38.3216 78.3573 37.8779 79.0708C37.4341 79.7844 36.7384 80.2843 35.9434 80.4609Z" fill="white"/>
<path d="M35.9434 80.4609L8.4206 86.5412C7.62523 86.716 6.7962 86.5529 6.11541 86.0878C5.43461 85.6227 4.95763 84.8935 4.78913 84.0603L0.0662565 60.5763C-0.10046 59.7427 0.0551298 58.8738 0.498891 58.1602C0.942652 57.4467 1.63834 56.9468 2.43334 56.7702L29.9561 50.6898C30.7515 50.5151 31.5805 50.6782 32.2613 51.1433C32.9421 51.6084 33.4191 52.3375 33.5876 53.1708L38.3105 76.6548C38.4772 77.4884 38.3216 78.3573 37.8779 79.0708C37.4341 79.7844 36.7384 80.2843 35.9434 80.4609ZM2.50772 57.14C1.80625 57.2958 1.19241 57.7369 0.800856 58.3665C0.409302 58.9961 0.272013 59.7628 0.419111 60.4984L5.14199 83.9823C5.29067 84.7175 5.71153 85.3609 6.31223 85.7713C6.91294 86.1817 7.64443 86.3256 8.34623 86.1714L35.869 80.0911C36.5705 79.9352 37.1843 79.4941 37.5759 78.8645C37.9674 78.2349 38.1047 77.4683 37.9576 76.7327L33.2348 53.2487C33.0861 52.5135 32.6652 51.8702 32.0645 51.4598C31.4638 51.0494 30.7323 50.9055 30.0305 51.0597L2.50772 57.14Z" fill="#3F3D56"/>
<path d="M28.2461 58.4332L14.3557 61.5019C14.2342 61.5314 14.1064 61.5115 13.9983 61.4462C13.8902 61.3808 13.8099 61.2749 13.7734 61.1498C13.7568 61.0846 13.753 61.0164 13.7623 60.9496C13.7716 60.8828 13.7937 60.8187 13.8275 60.7611C13.8612 60.7036 13.9057 60.6538 13.9584 60.6149C14.0111 60.576 14.0708 60.5488 14.1338 60.5348L28.2734 57.4111C28.8255 57.7372 28.651 58.3438 28.2459 58.4332L28.2461 58.4332Z" fill="#CCCCCC"/>
<path d="M28.7597 60.9868L14.8693 64.0555C14.7477 64.0851 14.62 64.0652 14.5119 63.9998C14.4038 63.9345 14.3234 63.8285 14.287 63.7034C14.2703 63.6382 14.2665 63.5701 14.2758 63.5033C14.2851 63.4364 14.3073 63.3723 14.341 63.3147C14.3747 63.2572 14.4193 63.2075 14.472 63.1686C14.5246 63.1297 14.5843 63.1024 14.6474 63.0885L28.7869 59.9648C29.339 60.2909 29.1645 60.8974 28.7595 60.9869L28.7597 60.9868Z" fill="#CCCCCC"/>
<path d="M12.1589 66.1728L7.91967 67.1094C7.78123 67.1398 7.63692 67.1114 7.51842 67.0305C7.39991 66.9495 7.31689 66.8226 7.28758 66.6775L6.23312 61.4343C6.20408 61.2892 6.23115 61.138 6.30839 61.0138C6.38564 60.8896 6.50674 60.8026 6.64513 60.7718L10.8843 59.8353C11.0228 59.8049 11.1671 59.8333 11.2856 59.9143C11.4041 59.9952 11.4871 60.1221 11.5164 60.2671L12.5709 65.5104C12.5999 65.6555 12.5729 65.8067 12.4956 65.9309C12.4184 66.0551 12.2973 66.1421 12.1589 66.1729V66.1728Z" fill="#0073C7"/>
<path d="M29.7708 66.2244L8.57147 70.9077C8.44991 70.9373 8.32218 70.9174 8.2141 70.852C8.10601 70.7867 8.02563 70.6807 7.98921 70.5557C7.97255 70.4904 7.96875 70.4223 7.97804 70.3555C7.98732 70.2887 8.0095 70.2245 8.04322 70.167C8.07695 70.1094 8.1215 70.0597 8.17417 70.0208C8.22684 69.9819 8.28652 69.9546 8.34956 69.9407L29.7982 65.2023C30.3503 65.5284 30.1758 66.1349 29.7708 66.2244Z" fill="#CCCCCC"/>
<path d="M30.2845 68.7788L9.0852 73.4621C8.96365 73.4917 8.83592 73.4718 8.72783 73.4064C8.61975 73.341 8.53936 73.2351 8.50294 73.11C8.48628 73.0448 8.48248 72.9767 8.49177 72.9099C8.50106 72.843 8.52324 72.7789 8.55696 72.7213C8.59068 72.6638 8.63523 72.6141 8.6879 72.5752C8.74057 72.5363 8.80025 72.509 8.8633 72.4951L30.3119 67.7567C30.864 68.0827 30.6895 68.6893 30.2845 68.7788Z" fill="#CCCCCC"/>
<path d="M30.7979 71.3315L9.59856 76.0148C9.47701 76.0444 9.34928 76.0245 9.24119 75.9591C9.13311 75.8938 9.05273 75.7879 9.01631 75.6628C8.99965 75.5975 8.99585 75.5294 9.00514 75.4626C9.01442 75.3958 9.0366 75.3316 9.07032 75.2741C9.10404 75.2165 9.1486 75.1668 9.20127 75.1279C9.25393 75.089 9.31362 75.0617 9.37666 75.0478L30.8253 70.3094C31.3774 70.6355 31.2029 71.242 30.7979 71.3315Z" fill="#CCCCCC"/>
<path d="M31.3115 73.8857L10.1122 78.569C9.99068 78.5986 9.86295 78.5787 9.75486 78.5133C9.64678 78.448 9.5664 78.342 9.52998 78.217C9.51332 78.1517 9.50952 78.0836 9.51881 78.0168C9.5281 77.95 9.55028 77.8858 9.584 77.8283C9.61772 77.7707 9.66227 77.721 9.71494 77.6821C9.76761 77.6432 9.82729 77.6159 9.89034 77.602L31.339 72.8636C31.8911 73.1897 31.7166 73.7962 31.3115 73.8857Z" fill="#CCCCCC"/>
<path d="M31.825 76.4386L10.6257 81.122C10.5041 81.1515 10.3764 81.1316 10.2683 81.0663C10.1602 81.0009 10.0798 80.895 10.0434 80.7699C10.0267 80.7046 10.0229 80.6365 10.0322 80.5697C10.0415 80.5029 10.0637 80.4387 10.0974 80.3812C10.1311 80.3236 10.1757 80.2739 10.2284 80.235C10.281 80.1961 10.3407 80.1689 10.4038 80.1549L31.8524 75.4165C32.4045 75.7426 32.23 76.3491 31.825 76.4386Z" fill="#CCCCCC"/>
<path d="M35.5671 64.7472C35.5189 64.8388 35.4778 64.9342 35.4439 65.0326L26.7652 67.2898L25.2554 65.6528L22.6005 67.718L25.0045 70.8882C25.1987 71.1444 25.467 71.3275 25.769 71.4103C26.071 71.493 26.3904 71.4708 26.6794 71.3471L36.0966 67.3139C36.4061 67.5527 36.7777 67.6871 37.1618 67.6992C37.546 67.7112 37.9246 67.6004 38.2472 67.3815C38.5698 67.1626 38.8212 66.8459 38.9679 66.4735C39.1147 66.1012 39.1497 65.6909 39.0685 65.2972C38.9873 64.9034 38.7936 64.5449 38.5133 64.2694C38.2329 63.9938 37.8792 63.8142 37.4991 63.7545C37.1189 63.6948 36.7305 63.7578 36.3854 63.9352C36.0403 64.1125 35.7549 64.3958 35.5671 64.7472L35.5671 64.7472Z" fill="#A0616A"/>
<path d="M5.94361 84.834C6.21418 84.7464 6.46313 84.5977 6.67293 84.3984C6.88274 84.1991 7.04829 83.954 7.15794 83.6803C7.26758 83.4067 7.31865 83.1112 7.30754 82.8146C7.29643 82.518 7.22342 82.2276 7.09364 81.9639L13.0661 64.5653L8.91843 63.7949L4.35191 81.1394C3.94355 81.3972 3.63963 81.8031 3.49774 82.2802C3.35585 82.7572 3.38584 83.2722 3.58204 83.7277C3.77823 84.1831 4.127 84.5472 4.56226 84.7511C4.99751 84.955 5.48901 84.9845 5.94361 84.834Z" fill="#A0616A"/>
<path d="M12.3076 67.6537L8.21238 66.0065C8.09587 65.9596 7.99036 65.887 7.90304 65.7935C7.81572 65.7 7.74865 65.5879 7.70639 65.4649C7.66413 65.3418 7.64768 65.2106 7.65815 65.0803C7.66863 64.9499 7.70578 64.8235 7.76708 64.7095L9.91542 60.7173C10.1476 60.0939 10.6062 59.5924 11.1907 59.3229C11.7751 59.0533 12.4376 59.0376 13.0331 59.2792C13.6285 59.5208 14.1083 60 14.3671 60.6118C14.626 61.2236 14.6428 61.9179 14.414 62.5427L13.4664 67.0021C13.4393 67.1297 13.3862 67.2498 13.3107 67.354C13.2353 67.4582 13.1393 67.5442 13.0294 67.606C12.9194 67.6679 12.798 67.7041 12.6734 67.7124C12.5489 67.7206 12.4241 67.7006 12.3076 67.6538V67.6537Z" fill="white"/>
<path d="M21.551 117.499L23.7615 117.499L24.813 108.563L21.5506 108.563L21.551 117.499Z" fill="#A0616A"/>
<path d="M20.9871 116.743L25.3403 116.742H25.3405C25.7048 116.742 26.0656 116.818 26.4022 116.964C26.7387 117.11 27.0446 117.324 27.3022 117.594C27.5598 117.864 27.7642 118.185 27.9036 118.537C28.043 118.89 28.1148 119.268 28.1147 119.65V119.745L20.9872 119.745L20.9871 116.743Z" fill="#2F2E41"/>
<path d="M9.10992 117.499L11.3205 117.499L12.372 108.563L9.10956 108.563L9.10992 117.499Z" fill="#A0616A"/>
<path d="M8.54602 116.743L12.8993 116.742H12.8994C13.2638 116.742 13.6245 116.818 13.9611 116.964C14.2977 117.11 14.6035 117.324 14.8612 117.594C15.1188 117.864 15.3231 118.185 15.4625 118.537C15.602 118.89 15.6737 119.268 15.6737 119.65V119.745L8.54616 119.745L8.54602 116.743Z" fill="#2F2E41"/>
<path d="M11.4272 113.902H8.62984C8.52005 113.902 8.4114 113.879 8.31047 113.834C8.20955 113.788 8.11844 113.722 8.04267 113.639C7.9669 113.555 7.90805 113.457 7.86967 113.349C7.83129 113.241 7.81419 113.126 7.81939 113.011L9.14813 83.0905L9.23186 83.0881L22.7402 82.719L25.3835 112.657C25.3937 112.769 25.3824 112.883 25.3505 112.99C25.3185 113.098 25.2664 113.198 25.1973 113.284C25.1282 113.371 25.0433 113.442 24.9477 113.493C24.8522 113.545 24.7477 113.576 24.6405 113.585L21.4985 113.849C21.3011 113.865 21.1047 113.805 20.9464 113.681C20.7881 113.556 20.6788 113.375 20.6389 113.172L16.6199 91.8596C16.6089 91.7949 16.5761 91.7364 16.5275 91.6948C16.4789 91.6532 16.4177 91.6313 16.355 91.633H16.3539C16.291 91.6315 16.2296 91.6538 16.1811 91.6959C16.1325 91.7379 16.1 91.7968 16.0895 91.8618L12.2233 113.216C12.1867 113.409 12.0874 113.583 11.9422 113.708C11.7971 113.833 11.6151 113.902 11.4272 113.902Z" fill="#2F2E41"/>
<path d="M16.5515 56.4047C18.9972 56.4047 20.9799 54.3267 20.9799 51.7633C20.9799 49.1999 18.9972 47.1218 16.5515 47.1218C14.1057 47.1218 12.123 49.1999 12.123 51.7633C12.123 54.3267 14.1057 56.4047 16.5515 56.4047Z" fill="#A0616A"/>
<path d="M15.0665 86.5969C12.9558 86.5969 10.7878 86.0154 8.99061 84.2961C8.89497 84.2052 8.82113 84.092 8.77509 83.9656C8.72906 83.8392 8.71212 83.7032 8.72566 83.5686C8.91802 81.7571 9.85115 72.4037 9.32564 66.1557C9.2231 64.9886 9.38074 63.8126 9.78613 62.7203C10.1915 61.6281 10.8336 60.6495 11.6616 59.8619C12.4751 59.076 13.4518 58.4991 14.5145 58.1766C15.5772 57.8541 16.6969 57.7948 17.7851 58.0035H17.7852C17.8403 58.0138 17.8955 58.0247 17.9507 58.0358C21.4961 58.755 23.9595 62.194 23.6808 66.0354C23.274 71.6404 22.9094 79.222 23.4819 83.5096C23.5056 83.685 23.4764 83.8638 23.3983 84.0209C23.3203 84.178 23.1972 84.3056 23.0465 84.3858C21.7438 85.0757 18.4801 86.5969 15.0665 86.5969Z" fill="white"/>
<path d="M20.8452 67.9877C20.7413 67.9153 20.6535 67.8202 20.5879 67.7089C20.5222 67.5977 20.4803 67.4729 20.4648 67.3431L19.9253 62.8096C19.754 62.1648 19.8337 61.4752 20.1468 60.892C20.4598 60.3087 20.9808 59.8793 21.5955 59.698C22.2101 59.5167 22.8683 59.5983 23.4257 59.9248C23.9831 60.2513 24.3942 60.7961 24.5689 61.4398L26.346 65.6278C26.3967 65.7473 26.4223 65.8769 26.4209 66.0077C26.4195 66.1385 26.3913 66.2674 26.3381 66.3857C26.2848 66.5041 26.2079 66.609 26.1125 66.6933C26.0172 66.7777 25.9055 66.8395 25.7853 66.8746L21.5594 68.1071C21.4392 68.1422 21.3131 68.1497 21.1899 68.1291C21.0666 68.1085 20.949 68.0603 20.8452 67.9877Z" fill="white"/>
<path d="M15.0055 56.3392C14.5863 56.3474 14.1698 56.2684 13.7799 56.1068C13.6084 56.0375 13.4303 55.9806 13.2591 55.9112C11.7469 55.2989 10.7508 53.611 10.7151 51.9124C10.6795 50.2138 11.5188 48.5651 12.7651 47.4786C14.0113 46.3921 15.6256 45.8342 17.242 45.7052C18.9831 45.5663 20.9437 46.0291 21.9166 47.5488C22.1756 47.9533 22.3567 48.4441 22.2033 48.9326C22.1573 49.08 22.0752 49.2121 21.9652 49.3158C21.5307 49.721 21.0976 49.4163 20.6546 49.3894C20.0458 49.3524 19.499 49.8689 19.3025 50.474C19.1059 51.079 19.1925 51.7451 19.3511 52.3623C19.472 52.7336 19.5482 53.1193 19.578 53.5105C19.5908 53.7066 19.5556 53.9029 19.4758 54.0808C19.3959 54.2587 19.274 54.4122 19.1217 54.5269C18.7412 54.7679 18.2416 54.6284 17.861 54.3878C17.4803 54.1472 17.1514 53.8126 16.7403 53.6355C16.3291 53.4585 15.7767 53.4977 15.5374 53.8904C15.4613 54.0332 15.4098 54.189 15.3853 54.3506C15.1707 55.3751 15.22 55.3147 15.0055 56.3392V56.3392Z" fill="#2F2E41"/>
<path d="M34.5587 120H0.300727C0.252907 120 0.207046 119.98 0.173232 119.945C0.139419 119.909 0.120422 119.861 0.120422 119.811C0.120422 119.761 0.139419 119.713 0.173232 119.677C0.207046 119.642 0.252907 119.622 0.300727 119.622H34.5587C34.6065 119.622 34.6523 119.642 34.6862 119.677C34.72 119.713 34.739 119.761 34.739 119.811C34.739 119.861 34.72 119.909 34.6862 119.945C34.6523 119.98 34.6065 120 34.5587 120Z" fill="#CCCCCC"/>
<path d="M122.249 81.0008L97.7171 95.423C97.0079 95.8389 96.1702 95.9429 95.3879 95.7122C94.6056 95.4816 93.9426 94.9351 93.5442 94.1928L82.3418 73.2608C81.9451 72.5175 81.8458 71.6396 82.0659 70.8197C82.2859 69.9997 82.8073 69.3048 83.5156 68.8873L108.047 54.4651C108.757 54.0492 109.594 53.9452 110.377 54.1759C111.159 54.4065 111.822 54.953 112.22 55.6953L123.423 76.6273C123.82 77.3706 123.919 78.2485 123.699 79.0685C123.479 79.8884 122.957 80.5833 122.249 81.0008Z" fill="white"/>
<path d="M122.249 81.0008L97.7171 95.423C97.0079 95.8389 96.1702 95.9429 95.3879 95.7122C94.6056 95.4816 93.9426 94.9351 93.5442 94.1928L82.3418 73.2608C81.9451 72.5175 81.8458 71.6396 82.0659 70.8197C82.2859 69.9997 82.8073 69.3048 83.5156 68.8873L108.047 54.4651C108.757 54.0492 109.594 53.9452 110.377 54.1759C111.159 54.4065 111.822 54.953 112.22 55.6953L123.423 76.6273C123.82 77.3706 123.919 78.2485 123.699 79.0685C123.479 79.8884 122.957 80.5833 122.249 81.0008ZM83.6921 69.2169C83.0671 69.5853 82.607 70.1985 82.4129 70.922C82.2187 71.6454 82.3063 72.42 82.6563 73.0759L93.8587 94.0079C94.2102 94.6629 94.7953 95.1451 95.4855 95.3486C96.1758 95.5521 96.9149 95.4603 97.5407 95.0934L122.073 80.6712C122.698 80.3028 123.158 79.6896 123.352 78.9662C123.546 78.2427 123.458 77.4681 123.108 76.8122L111.906 55.8802C111.554 55.2252 110.969 54.743 110.279 54.5395C109.589 54.336 108.85 54.4278 108.224 54.7947L83.6921 69.2169Z" fill="#3F3D56"/>
<path d="M108.623 62.3902L96.2423 69.6689C96.1347 69.7352 96.0072 69.7562 95.8854 69.7277C95.7636 69.6991 95.6567 69.6232 95.5863 69.5153C95.5518 69.4582 95.5287 69.3944 95.5185 69.3277C95.5084 69.261 95.5112 69.1929 95.527 69.1274C95.5428 69.0619 95.5711 69.0005 95.6103 68.9469C95.6495 68.8933 95.6986 68.8486 95.7548 68.8155L108.358 61.4063C108.978 61.5446 108.984 62.178 108.623 62.3903L108.623 62.3902Z" fill="#CCCCCC"/>
<path d="M109.841 64.6663L97.4604 71.945C97.3529 72.0113 97.2253 72.0323 97.1035 72.0038C96.9817 71.9753 96.8748 71.8994 96.8044 71.7914C96.7699 71.7344 96.7469 71.6705 96.7367 71.6039C96.7265 71.5372 96.7294 71.469 96.7452 71.4035C96.7609 71.3381 96.7893 71.2766 96.8284 71.223C96.8676 71.1694 96.9168 71.1247 96.973 71.0917L109.576 63.6824C110.196 63.8207 110.202 64.4542 109.841 64.6664L109.841 64.6663Z" fill="#CCCCCC"/>
<path d="M95.4776 74.8145L91.699 77.0359C91.5756 77.1083 91.4298 77.1264 91.2936 77.0862C91.1574 77.0461 91.042 76.951 90.9727 76.8217L88.4716 72.1483C88.4025 72.0189 88.3852 71.8661 88.4235 71.7234C88.4618 71.5807 88.5526 71.4597 88.6759 71.387L92.4544 69.1657C92.5779 69.0933 92.7237 69.0752 92.8598 69.1154C92.996 69.1555 93.1114 69.2506 93.1808 69.3798L95.6819 74.0532C95.751 74.1826 95.7682 74.3354 95.7299 74.4781C95.6916 74.6209 95.6009 74.7418 95.4776 74.8145L95.4776 74.8145Z" fill="#CCCCCC"/>
<path d="M112.3 69.3479L93.404 80.4565C93.2964 80.5228 93.1688 80.5438 93.0471 80.5153C92.9253 80.4868 92.8184 80.4109 92.7479 80.3029C92.7135 80.2458 92.6904 80.182 92.6802 80.1154C92.67 80.0487 92.6729 79.9805 92.6887 79.915C92.7045 79.8496 92.7328 79.7881 92.772 79.7345C92.8111 79.6809 92.8603 79.6362 92.9165 79.6032L112.034 68.3639C112.654 68.5022 112.661 69.1357 112.3 69.3479Z" fill="#CCCCCC"/>
<path d="M113.518 71.6247L94.6225 82.7333C94.5149 82.7996 94.3873 82.8206 94.2656 82.7921C94.1438 82.7636 94.0369 82.6877 93.9665 82.5797C93.932 82.5227 93.9089 82.4589 93.8987 82.3922C93.8885 82.3255 93.8914 82.2573 93.9072 82.1919C93.923 82.1264 93.9513 82.065 93.9905 82.0113C94.0296 81.9577 94.0788 81.913 94.135 81.88L113.253 70.6407C113.873 70.779 113.879 71.4125 113.518 71.6247V71.6247Z" fill="#CCCCCC"/>
<path d="M114.736 73.9L95.8402 85.0086C95.7326 85.0749 95.6051 85.0959 95.4833 85.0674C95.3615 85.0389 95.2546 84.963 95.1842 84.855C95.1497 84.798 95.1266 84.7342 95.1164 84.6675C95.1063 84.6008 95.1091 84.5326 95.1249 84.4672C95.1407 84.4017 95.169 84.3403 95.2082 84.2866C95.2474 84.233 95.2965 84.1883 95.3527 84.1553L114.471 72.916C115.09 73.0543 115.097 73.6878 114.736 73.9Z" fill="#CCCCCC"/>
<path d="M115.954 76.1767L97.0586 87.2853C96.951 87.3516 96.8234 87.3726 96.7017 87.344C96.5799 87.3155 96.473 87.2396 96.4026 87.1316C96.3681 87.0746 96.345 87.0108 96.3348 86.9441C96.3246 86.8774 96.3275 86.8093 96.3433 86.7438C96.3591 86.6783 96.3874 86.6169 96.4266 86.5633C96.4657 86.5097 96.5149 86.465 96.5711 86.4319L115.689 75.1927C116.309 75.3309 116.315 75.9644 115.954 76.1767H115.954Z" fill="#CCCCCC"/>
<path d="M117.172 78.4521L98.2764 89.5608C98.1688 89.627 98.0412 89.648 97.9194 89.6195C97.7977 89.591 97.6908 89.5151 97.6203 89.4071C97.5858 89.3501 97.5628 89.2863 97.5526 89.2196C97.5424 89.1529 97.5453 89.0848 97.5611 89.0193C97.5768 88.9538 97.6052 88.8924 97.6443 88.8388C97.6835 88.7851 97.7327 88.7405 97.7889 88.7074L116.907 77.4681C117.527 77.6064 117.533 78.2399 117.172 78.4521V78.4521Z" fill="#CCCCCC"/>
<path d="M113.875 86.9794C113.978 86.7415 114.03 86.4828 114.027 86.2217C114.025 85.9605 113.967 85.7032 113.859 85.4678C113.751 85.2324 113.595 85.0246 113.403 84.8592C113.21 84.6938 112.985 84.5747 112.743 84.5103L112.229 78.1845L109.758 80.2278L110.625 85.9217C110.548 86.3541 110.626 86.8008 110.843 87.1772C111.06 87.5535 111.401 87.8334 111.802 87.9638C112.203 88.0942 112.635 88.066 113.017 87.8845C113.399 87.7031 113.705 87.381 113.875 86.9794Z" fill="#FFB8B8"/>
<path d="M112.276 83.8478L110.223 84.1044C110.119 84.1174 110.013 84.1077 109.913 84.0759C109.812 84.0441 109.719 83.9909 109.639 83.9196C109.559 83.8484 109.494 83.7605 109.448 83.6617C109.402 83.5628 109.376 83.455 109.371 83.345L109.072 76.0879L105.181 64.9485C105.025 64.6029 104.954 64.2219 104.974 63.8402C104.995 63.4584 105.105 63.088 105.297 62.7625C105.392 62.6053 105.501 62.4577 105.623 62.3217C105.862 62.0514 106.161 61.8459 106.492 61.7225C106.824 61.5991 107.179 61.5615 107.527 61.6129C107.886 61.663 108.229 61.8021 108.526 62.0187C108.823 62.2352 109.067 62.5231 109.237 62.8582L111.774 68.4305C112.836 70.7612 113.337 73.3286 113.234 75.9089L112.948 83.0877C112.94 83.2755 112.87 83.4546 112.749 83.5934C112.628 83.7321 112.464 83.8217 112.286 83.8464L112.276 83.8478Z" fill="white"/>
<path d="M119.565 115.212L117.662 116.087L113.535 108.811L116.343 107.519L119.565 115.212Z" fill="#FFB8B8"/>
<path d="M120.86 116.922L114.724 119.745L114.69 119.664C114.552 119.335 114.478 118.981 114.471 118.622C114.463 118.263 114.524 117.906 114.648 117.572C114.773 117.237 114.959 116.932 115.196 116.673C115.433 116.414 115.716 116.206 116.03 116.062L116.03 116.062L119.778 114.338L120.86 116.922Z" fill="#2F2E41"/>
<path d="M94.0177 117.633H91.9395L90.9509 109.232L94.018 109.232L94.0177 117.633Z" fill="#FFB8B8"/>
<path d="M94.5476 119.745L87.8467 119.745V119.656C87.8467 119.297 87.9142 118.941 88.0453 118.61C88.1763 118.278 88.3685 117.977 88.6106 117.723C88.8528 117.469 89.1404 117.268 89.4568 117.13C89.7732 116.993 90.1124 116.922 90.4549 116.922H90.4551L94.5477 116.922L94.5476 119.745Z" fill="#2F2E41"/>
<path d="M114.251 114.761L102.674 87.6843C102.653 87.6336 102.618 87.5909 102.573 87.5621C102.527 87.5334 102.475 87.5201 102.422 87.524C102.37 87.5279 102.32 87.5489 102.279 87.584C102.238 87.6191 102.209 87.6666 102.195 87.7199L95.1414 113.873C95.0948 114.056 94.9875 114.216 94.8386 114.323C94.6897 114.431 94.5091 114.479 94.3294 114.459L90.4771 114.055C90.2786 114.033 90.096 113.931 89.9682 113.771C89.8403 113.61 89.7772 113.404 89.7922 113.195C91.0175 97.2221 92.9491 82.1468 98.7356 72.278L98.7664 72.2254L107.519 74.0242L119.204 113.024C119.262 113.225 119.242 113.441 119.15 113.627C119.057 113.813 118.899 113.954 118.708 114.019L115.185 115.206C115.004 115.267 114.808 115.256 114.635 115.174C114.462 115.091 114.325 114.944 114.251 114.761Z" fill="#2F2E41"/>
<path d="M102.997 58.4077C105.296 58.4077 107.16 56.454 107.16 54.0441C107.16 51.6342 105.296 49.6805 102.997 49.6805C100.698 49.6805 98.8336 51.6342 98.8336 54.0441C98.8336 56.454 100.698 58.4077 102.997 58.4077Z" fill="#FFB8B8"/>
<path d="M98.1977 73.0334L98.1446 73.0219L98.1321 72.9667C97.5712 70.4845 97.5578 67.7755 98.0924 64.9154C98.3635 63.4535 99.1181 62.1389 100.223 61.2029C101.328 60.2669 102.713 59.7697 104.134 59.7989C105.675 59.8316 107.147 60.4805 108.247 61.6128C109.347 62.745 109.992 64.275 110.051 65.8897C110.23 70.8091 108.312 75.0741 108.292 75.1166L108.264 75.179L98.1977 73.0334Z" fill="white"/>
<path d="M87.0369 81.3349C87.2834 81.2967 87.5189 81.2023 87.7269 81.0584C87.9348 80.9145 88.1101 80.7245 88.2405 80.5019C88.3708 80.2793 88.453 80.0295 88.4812 79.77C88.5095 79.5105 88.4831 79.2476 88.4039 79L93.1993 75.1211L90.2219 74.0504L86.1246 77.898C85.7365 78.065 85.4202 78.3753 85.2359 78.7703C85.0515 79.1653 85.0118 79.6175 85.1242 80.0411C85.2367 80.4648 85.4935 80.8305 85.846 81.0689C86.1985 81.3073 86.6222 81.402 87.0369 81.3349V81.3349Z" fill="#FFB8B8"/>
<path d="M89.6561 78.4096C89.4999 78.5063 89.316 78.5413 89.1373 78.5083C88.9587 78.4753 88.7973 78.3764 88.6822 78.2295L87.3648 76.5602C87.2979 76.4753 87.2484 76.377 87.2194 76.2712C87.1904 76.1654 87.1826 76.0544 87.1965 75.9453C87.2103 75.8362 87.2455 75.7313 87.2998 75.6371C87.3542 75.5429 87.4265 75.4615 87.5122 75.3979L93.1707 71.2038L99.998 61.7427C100.191 61.4181 100.458 61.1491 100.775 60.9602C101.092 60.7712 101.449 60.6683 101.814 60.6607C101.992 60.6595 102.169 60.6758 102.344 60.7091C102.691 60.7737 103.017 60.9251 103.296 61.1504C103.574 61.3758 103.797 61.6684 103.944 62.0033C104.098 62.3466 104.172 62.7236 104.159 63.1029C104.147 63.4822 104.048 63.8528 103.871 64.1841L98.8159 72.7649L98.8048 72.7836L89.6561 78.4096Z" fill="white"/>
<path d="M103.741 53.7733C103.435 53.2443 102.757 53.0948 102.17 53.1552C101.582 53.2155 101.01 53.4321 100.419 53.4273C98.779 53.414 97.5129 51.3188 98.2025 49.759C98.768 48.4797 100.18 47.918 101.458 47.4771C104.137 46.5528 107.215 45.6647 109.646 47.1634C110.42 47.6552 111.056 48.3548 111.486 49.19C111.917 50.0252 112.126 50.9657 112.094 51.9143C112.039 53.0938 111.608 54.3054 111.973 55.4229C112.393 56.712 113.727 57.4036 114.987 57.7382C117.196 58.3247 119.525 58.2302 121.747 58.7562C123.97 59.2823 126.247 60.679 126.847 62.9832C127.24 64.4967 126.829 66.126 126.149 67.5233C125.456 68.949 124.491 70.2113 123.316 71.2328C122.14 72.2542 120.778 73.0135 119.313 73.4639C117.848 73.9144 116.31 74.0466 114.794 73.8525C113.279 73.6583 111.817 73.1419 110.498 72.3349C107.811 70.6904 105.871 67.9112 104.715 64.8836C104.059 63.1176 103.597 61.279 103.339 59.4034C103.08 57.6476 103.299 55.8733 103.768 54.1661C103.791 54.1024 103.8 54.0344 103.795 53.9667C103.79 53.899 103.772 53.8331 103.741 53.7733Z" fill="#2F2E41"/>
<path d="M118.761 120H84.5031C84.4553 120 84.4094 119.98 84.3756 119.945C84.3418 119.909 84.3228 119.861 84.3228 119.811C84.3228 119.761 84.3418 119.713 84.3756 119.677C84.4094 119.642 84.4553 119.622 84.5031 119.622H118.761C118.809 119.622 118.855 119.642 118.889 119.677C118.922 119.713 118.941 119.761 118.941 119.811C118.941 119.861 118.922 119.909 118.889 119.945C118.855 119.98 118.809 120 118.761 120Z" fill="#CCCCCC"/>
</g>
<defs>
<clipPath id="clip0_314_451">
<rect width="127" height="120" fill="white"/>
</clipPath>
</defs>
</svg>
