<svg width="14" height="18" viewBox="0 0 14 18" fill="none" xmlns="http://www.w3.org/2000/svg">
<path d="M7.80273 8.94336L6.2832 10.8809L5.48047 9.85742C5.46585 9.83875 5.44718 9.82364 5.42586 9.81326C5.40454 9.80287 5.38114 9.79747 5.35742 9.79747C5.33371 9.79747 5.3103 9.80287 5.28898 9.81326C5.26767 9.82364 5.24899 9.83875 5.23438 9.85742L3.28516 12.3418C3.26712 12.3648 3.25593 12.3925 3.25287 12.4216C3.2498 12.4506 3.25498 12.48 3.26782 12.5063C3.28065 12.5326 3.30063 12.5547 3.32545 12.5702C3.35028 12.5856 3.37895 12.5938 3.4082 12.5938H10.5938C10.7246 12.5938 10.7969 12.4434 10.7168 12.3418L8.05078 8.94336C8.03597 8.92466 8.01712 8.90954 7.99564 8.89916C7.97416 8.88877 7.95062 8.88337 7.92676 8.88337C7.9029 8.88337 7.87935 8.88877 7.85787 8.89916C7.8364 8.90954 7.81755 8.92466 7.80273 8.94336ZM4.03125 7.63281C4.03125 7.84001 4.11356 8.03873 4.26007 8.18524C4.40659 8.33175 4.6053 8.41406 4.8125 8.41406C5.0197 8.41406 5.21841 8.33175 5.36493 8.18524C5.51144 8.03873 5.59375 7.84001 5.59375 7.63281C5.59375 7.42561 5.51144 7.2269 5.36493 7.08039C5.21841 6.93387 5.0197 6.85156 4.8125 6.85156C4.6053 6.85156 4.40659 6.93387 4.26007 7.08039C4.11356 7.2269 4.03125 7.42561 4.03125 7.63281ZM13.6914 4.63672L9.48828 0.433594C9.37109 0.316406 9.21289 0.25 9.04688 0.25H0.75C0.404297 0.25 0.125 0.529297 0.125 0.875V17.125C0.125 17.4707 0.404297 17.75 0.75 17.75H13.25C13.5957 17.75 13.875 17.4707 13.875 17.125V5.08008C13.875 4.91406 13.8086 4.75391 13.6914 4.63672ZM12.4336 5.36719H8.75781V1.69141L12.4336 5.36719ZM12.4688 16.3438H1.53125V1.65625H7.42969V5.875C7.42969 6.09256 7.51611 6.30121 7.66995 6.45505C7.82379 6.60889 8.03244 6.69531 8.25 6.69531H12.4688V16.3438Z" fill="#4700A3"/>
</svg>
