<svg width="195" height="172" viewBox="0 0 195 172" fill="none" xmlns="http://www.w3.org/2000/svg">
<path opacity="0.07" d="M133.345 82.6281C134.51 87.0775 138.128 92.0196 140.893 95.1923C142.209 96.7032 143.942 97.7683 145.827 98.4482L155.127 101.802L163.711 104.899C165.499 105.544 169.791 107.092 172.969 105.005C176.147 102.917 184.098 112.252 187.317 113.413C193.267 115.56 194.635 123.251 193.54 129.481C193.182 131.518 192.734 133.672 192.183 135.783C190.06 143.909 185.293 147.04 183.774 150.13C182.255 153.22 177.875 155.278 172.949 159.969L172.949 159.969C168.024 164.659 167.408 165.246 164.23 167.333C161.052 169.42 157.387 171.736 152.192 172.692C146.997 173.647 138.038 176.074 135.346 177.933C132.655 179.792 123.842 176.209 117.961 175.704C112.08 175.2 91.1361 166.029 81.8368 162.674C72.5374 159.32 74.0677 160.68 66.0994 156.998C58.1311 153.315 41.1036 151.216 32.8773 148.248C24.6509 145.281 -37.7007 127.641 -42.2329 121.156C-46.7651 114.671 -67.3808 106.831 -70.4824 100.862C-73.584 94.8926 -76.3457 94.7049 -79.3885 86.3318C-82.4313 77.9586 -84.7472 74.2938 -86.7171 66.3077C-88.6869 58.3215 -86.4413 59.94 -86.8105 55.3606C-87.1797 50.7812 -86.3176 45.0291 -84.4527 37.6178C-83.5958 34.2122 -78.9332 24.8894 -73.9205 15.4497C-67.9456 4.19813 -55.1015 -1.44902 -42.6741 1.35373L-30.8711 5.61106C-28.0097 6.64314 -16.2476 7.65209 -11.1522 5.85219C-6.05676 4.0523 7.43494 8.11032 11.0116 9.40042C14.5883 10.6905 53.7031 24.3949 56.7931 25.9137C57.6998 26.3593 59.5565 27.4776 61.7644 28.8609C69.4697 33.6884 77.5801 37.8577 86.1333 40.9429C93.4196 44.6489 108.395 52.2872 110.009 53.1926C110.583 53.5148 112.236 54.8783 114.347 56.7015C122.608 63.8382 130.579 72.0673 133.345 82.6281Z" stroke="white"/>
</svg>
